{
    "asset" : {
        "generator" : "Khronos glTF Blender I/O v1.6.16",
        "version" : "2.0"
    },
    "scene" : 0,
    "scenes" : [
        {
            "name" : "Scene",
            "nodes" : [
                0,
                1,
                2
            ]
        }
    ],
    "nodes" : [
        {
            "mesh" : 0,
            "name" : "Circle"
        },
        {
            "name" : "Light",
            "rotation" : [
                0.16907575726509094,
                0.7558803558349609,
                -0.27217137813568115,
                0.570947527885437
            ],
            "translation" : [
                4.076245307922363,
                5.903861999511719,
                -1.0054539442062378
            ]
        },
        {
            "name" : "Camera",
            "rotation" : [
                0.483536034822464,
                0.33687159419059753,
                -0.20870360732078552,
                0.7804827094078064
            ],
            "translation" : [
                7.358891487121582,
                4.958309173583984,
                6.925790786743164
            ]
        }
    ],
    "materials" : [
        {
            "doubleSided" : true,
            "name" : "verriere",
            "pbrMetallicRoughness" : {
                "baseColorTexture" : {
                    "index" : 0
                },
                "metallicFactor" : 0,
                "roughnessFactor" : 0.5
            }
        },
        {
            "doubleSided" : true,
            "name" : "metal",
            "pbrMetallicRoughness" : {
                "baseColorTexture" : {
                    "index" : 1
                },
                "roughnessFactor" : 0.5
            }
        },
        {
            "doubleSided" : true,
            "emissiveFactor" : [
                0.6000000238418579,
                0.555895815527272,
                0.013963056538027763
            ],
            "name" : "lumiere",
            "pbrMetallicRoughness" : {}
        },
        {
            "doubleSided" : true,
            "name" : "obsrevatoire",
            "pbrMetallicRoughness" : {
                "baseColorTexture" : {
                    "index" : 2
                },
                "metallicFactor" : 0,
                "roughnessFactor" : 0.5
            }
        },
        {
            "doubleSided" : true,
            "name" : "encadrement",
            "pbrMetallicRoughness" : {
                "baseColorTexture" : {
                    "index" : 3
                },
                "metallicFactor" : 0,
                "roughnessFactor" : 0.5
            }
        },
        {
            "doubleSided" : true,
            "name" : "paroies",
            "pbrMetallicRoughness" : {
                "baseColorTexture" : {
                    "index" : 4
                },
                "metallicFactor" : 0,
                "roughnessFactor" : 0.5
            }
        }
    ],
    "meshes" : [
        {
            "name" : "Circle",
            "primitives" : [
                {
                    "attributes" : {
                        "POSITION" : 0,
                        "NORMAL" : 1,
                        "TEXCOORD_0" : 2
                    },
                    "indices" : 3,
                    "material" : 0
                },
                {
                    "attributes" : {
                        "POSITION" : 4,
                        "NORMAL" : 5,
                        "TEXCOORD_0" : 6
                    },
                    "indices" : 7,
                    "material" : 1
                },
                {
                    "attributes" : {
                        "POSITION" : 8,
                        "NORMAL" : 9,
                        "TEXCOORD_0" : 10
                    },
                    "indices" : 11,
                    "material" : 2
                },
                {
                    "attributes" : {
                        "POSITION" : 12,
                        "NORMAL" : 13,
                        "TEXCOORD_0" : 14
                    },
                    "indices" : 15,
                    "material" : 3
                },
                {
                    "attributes" : {
                        "POSITION" : 16,
                        "NORMAL" : 17,
                        "TEXCOORD_0" : 18
                    },
                    "indices" : 19,
                    "material" : 4
                },
                {
                    "attributes" : {
                        "POSITION" : 20,
                        "NORMAL" : 21,
                        "TEXCOORD_0" : 22
                    },
                    "indices" : 23,
                    "material" : 5
                }
            ]
        }
    ],
    "textures" : [
        {
            "sampler" : 0,
            "source" : 0
        },
        {
            "sampler" : 0,
            "source" : 1
        },
        {
            "sampler" : 0,
            "source" : 2
        },
        {
            "sampler" : 0,
            "source" : 3
        },
        {
            "sampler" : 0,
            "source" : 4
        }
    ],
    "images" : [
        {
            "mimeType" : "image/jpeg",
            "name" : "verriere_color",
            "uri" : "texture/verriere_color.jpg"
        },
        {
            "mimeType" : "image/jpeg",
            "name" : "metal_color",
            "uri" : "texture/metal_color.jpg"
        },
        {
            "mimeType" : "image/jpeg",
            "name" : "obsrevatoire_color",
            "uri" : "texture/obsrevatoire_color.jpg"
        },
        {
            "mimeType" : "image/jpeg",
            "name" : "encadrement_color",
            "uri" : "texture/encadrement_color.jpg"
        },
        {
            "mimeType" : "image/jpeg",
            "name" : "paroies_color",
            "uri" : "texture/paroies_color.jpg"
        }
    ],
    "accessors" : [
        {
            "bufferView" : 0,
            "componentType" : 5126,
            "count" : 744,
            "max" : [
                2.196457624435425,
                1.5694446563720703,
                2.196803331375122
            ],
            "min" : [
                -2.196457624435425,
                0.5056145787239075,
                -2.196803331375122
            ],
            "type" : "VEC3"
        },
        {
            "bufferView" : 1,
            "componentType" : 5126,
            "count" : 744,
            "type" : "VEC3"
        },
        {
            "bufferView" : 2,
            "componentType" : 5126,
            "count" : 744,
            "type" : "VEC2"
        },
        {
            "bufferView" : 3,
            "componentType" : 5123,
            "count" : 1032,
            "type" : "SCALAR"
        },
        {
            "bufferView" : 4,
            "componentType" : 5126,
            "count" : 940,
            "max" : [
                4.660433769226074,
                1.5,
                4.660433769226074
            ],
            "min" : [
                -4.660433769226074,
                -1.6478686332702637,
                -4.660433769226074
            ],
            "type" : "VEC3"
        },
        {
            "bufferView" : 5,
            "componentType" : 5126,
            "count" : 940,
            "type" : "VEC3"
        },
        {
            "bufferView" : 6,
            "componentType" : 5126,
            "count" : 940,
            "type" : "VEC2"
        },
        {
            "bufferView" : 7,
            "componentType" : 5123,
            "count" : 1278,
            "type" : "SCALAR"
        },
        {
            "bufferView" : 8,
            "componentType" : 5126,
            "count" : 128,
            "max" : [
                4.6764678955078125,
                -0.10713335126638412,
                4.6764607429504395
            ],
            "min" : [
                -4.6764678955078125,
                -0.14999037981033325,
                -4.6764607429504395
            ],
            "type" : "VEC3"
        },
        {
            "bufferView" : 9,
            "componentType" : 5126,
            "count" : 128,
            "type" : "VEC3"
        },
        {
            "bufferView" : 10,
            "componentType" : 5126,
            "count" : 128,
            "type" : "VEC2"
        },
        {
            "bufferView" : 11,
            "componentType" : 5123,
            "count" : 192,
            "type" : "SCALAR"
        },
        {
            "bufferView" : 12,
            "componentType" : 5126,
            "count" : 128,
            "max" : [
                4.647759914398193,
                -0.1603984832763672,
                4.64772367477417
            ],
            "min" : [
                -4.647759914398193,
                -0.5338231921195984,
                -4.64772367477417
            ],
            "type" : "VEC3"
        },
        {
            "bufferView" : 13,
            "componentType" : 5126,
            "count" : 128,
            "type" : "VEC3"
        },
        {
            "bufferView" : 14,
            "componentType" : 5126,
            "count" : 128,
            "type" : "VEC2"
        },
        {
            "bufferView" : 15,
            "componentType" : 5123,
            "count" : 192,
            "type" : "SCALAR"
        },
        {
            "bufferView" : 16,
            "componentType" : 5126,
            "count" : 896,
            "max" : [
                4.6764678955078125,
                -0.09497174620628357,
                4.6764607429504395
            ],
            "min" : [
                -4.6764678955078125,
                -0.5984256267547607,
                -4.6764607429504395
            ],
            "type" : "VEC3"
        },
        {
            "bufferView" : 17,
            "componentType" : 5126,
            "count" : 896,
            "type" : "VEC3"
        },
        {
            "bufferView" : 18,
            "componentType" : 5126,
            "count" : 896,
            "type" : "VEC2"
        },
        {
            "bufferView" : 19,
            "componentType" : 5123,
            "count" : 1344,
            "type" : "SCALAR"
        },
        {
            "bufferView" : 20,
            "componentType" : 5126,
            "count" : 252,
            "max" : [
                4.660433769226074,
                -0.09497174620628357,
                4.660433769226074
            ],
            "min" : [
                -4.660433769226074,
                -0.7867343425750732,
                -4.660433769226074
            ],
            "type" : "VEC3"
        },
        {
            "bufferView" : 21,
            "componentType" : 5126,
            "count" : 252,
            "type" : "VEC3"
        },
        {
            "bufferView" : 22,
            "componentType" : 5126,
            "count" : 252,
            "type" : "VEC2"
        },
        {
            "bufferView" : 23,
            "componentType" : 5123,
            "count" : 378,
            "type" : "SCALAR"
        }
    ],
    "bufferViews" : [
        {
            "buffer" : 0,
            "byteLength" : 8928,
            "byteOffset" : 0
        },
        {
            "buffer" : 0,
            "byteLength" : 8928,
            "byteOffset" : 8928
        },
        {
            "buffer" : 0,
            "byteLength" : 5952,
            "byteOffset" : 17856
        },
        {
            "buffer" : 0,
            "byteLength" : 2064,
            "byteOffset" : 23808
        },
        {
            "buffer" : 0,
            "byteLength" : 11280,
            "byteOffset" : 25872
        },
        {
            "buffer" : 0,
            "byteLength" : 11280,
            "byteOffset" : 37152
        },
        {
            "buffer" : 0,
            "byteLength" : 7520,
            "byteOffset" : 48432
        },
        {
            "buffer" : 0,
            "byteLength" : 2556,
            "byteOffset" : 55952
        },
        {
            "buffer" : 0,
            "byteLength" : 1536,
            "byteOffset" : 58508
        },
        {
            "buffer" : 0,
            "byteLength" : 1536,
            "byteOffset" : 60044
        },
        {
            "buffer" : 0,
            "byteLength" : 1024,
            "byteOffset" : 61580
        },
        {
            "buffer" : 0,
            "byteLength" : 384,
            "byteOffset" : 62604
        },
        {
            "buffer" : 0,
            "byteLength" : 1536,
            "byteOffset" : 62988
        },
        {
            "buffer" : 0,
            "byteLength" : 1536,
            "byteOffset" : 64524
        },
        {
            "buffer" : 0,
            "byteLength" : 1024,
            "byteOffset" : 66060
        },
        {
            "buffer" : 0,
            "byteLength" : 384,
            "byteOffset" : 67084
        },
        {
            "buffer" : 0,
            "byteLength" : 10752,
            "byteOffset" : 67468
        },
        {
            "buffer" : 0,
            "byteLength" : 10752,
            "byteOffset" : 78220
        },
        {
            "buffer" : 0,
            "byteLength" : 7168,
            "byteOffset" : 88972
        },
        {
            "buffer" : 0,
            "byteLength" : 2688,
            "byteOffset" : 96140
        },
        {
            "buffer" : 0,
            "byteLength" : 3024,
            "byteOffset" : 98828
        },
        {
            "buffer" : 0,
            "byteLength" : 3024,
            "byteOffset" : 101852
        },
        {
            "buffer" : 0,
            "byteLength" : 2016,
            "byteOffset" : 104876
        },
        {
            "buffer" : 0,
            "byteLength" : 756,
            "byteOffset" : 106892
        }
    ],
    "samplers" : [
        {
            "magFilter" : 9729,
            "minFilter" : 9987
        }
    ],
    "buffers" : [
        {
            "byteLength" : 107648,
            "uri" : "soucoupe.bin"
        }
    ]
}
