{
    "asset" : {
        "generator" : "Khronos glTF Blender I/O v1.6.16",
        "version" : "2.0"
    },
    "scene" : 0,
    "scenes" : [
        {
            "name" : "Scene",
            "nodes" : [
                0,
                1,
                2
            ]
        }
    ],
    "nodes" : [
        {
            "mesh" : 0,
            "name" : "Circle"
        },
        {
            "name" : "Light",
            "rotation" : [
                0.16907575726509094,
                0.7558803558349609,
                -0.27217137813568115,
                0.570947527885437
            ],
            "translation" : [
                4.076245307922363,
                5.903861999511719,
                -1.0054539442062378
            ]
        },
        {
            "name" : "Camera",
            "rotation" : [
                0.483536034822464,
                0.33687159419059753,
                -0.20870360732078552,
                0.7804827094078064
            ],
            "translation" : [
                7.358891487121582,
                4.958309173583984,
                6.925790786743164
            ]
        }
    ],
    "materials" : [
        {
            "doubleSided" : true,
            "name" : "verriere",
            "pbrMetallicRoughness" : {
                "baseColorTexture" : {
                    "index" : 0
                },
                "metallicFactor" : 0,
                "roughnessFactor" : 0.5
            }
        },
        {
            "doubleSided" : true,
            "name" : "metal",
            "pbrMetallicRoughness" : {
                "baseColorTexture" : {
                    "index" : 1
                },
                "roughnessFactor" : 0.5
            }
        },
        {
            "doubleSided" : true,
            "emissiveFactor" : [
                0.6000000238418579,
                0.555895815527272,
                0.013963056538027763
            ],
            "name" : "lumiere",
            "pbrMetallicRoughness" : {}
        },
        {
            "doubleSided" : true,
            "name" : "obsrevatoire",
            "pbrMetallicRoughness" : {
                "baseColorTexture" : {
                    "index" : 2
                },
                "metallicFactor" : 0,
                "roughnessFactor" : 0.5
            }
        },
        {
            "doubleSided" : true,
            "name" : "encadrement",
            "pbrMetallicRoughness" : {
                "baseColorTexture" : {
                    "index" : 3
                },
                "metallicFactor" : 0,
                "roughnessFactor" : 0.5
            }
        },
        {
            "doubleSided" : true,
            "name" : "paroies",
            "pbrMetallicRoughness" : {
                "baseColorTexture" : {
                    "index" : 4
                },
                "metallicFactor" : 0,
                "roughnessFactor" : 0.5
            }
        }
    ],
    "meshes" : [
        {
            "name" : "Circle",
            "primitives" : [
                {
                    "attributes" : {
                        "POSITION" : 0,
                        "NORMAL" : 1,
                        "TEXCOORD_0" : 2,
                        "COLOR_0" : 3
                    },
                    "indices" : 4,
                    "material" : 0
                },
                {
                    "attributes" : {
                        "POSITION" : 5,
                        "NORMAL" : 6,
                        "TEXCOORD_0" : 7,
                        "COLOR_0" : 8
                    },
                    "indices" : 9,
                    "material" : 1
                },
                {
                    "attributes" : {
                        "POSITION" : 10,
                        "NORMAL" : 11,
                        "TEXCOORD_0" : 12,
                        "COLOR_0" : 13
                    },
                    "indices" : 14,
                    "material" : 2
                },
                {
                    "attributes" : {
                        "POSITION" : 15,
                        "NORMAL" : 16,
                        "TEXCOORD_0" : 17,
                        "COLOR_0" : 18
                    },
                    "indices" : 19,
                    "material" : 3
                },
                {
                    "attributes" : {
                        "POSITION" : 20,
                        "NORMAL" : 21,
                        "TEXCOORD_0" : 22,
                        "COLOR_0" : 23
                    },
                    "indices" : 24,
                    "material" : 4
                },
                {
                    "attributes" : {
                        "POSITION" : 25,
                        "NORMAL" : 26,
                        "TEXCOORD_0" : 27,
                        "COLOR_0" : 28
                    },
                    "indices" : 29,
                    "material" : 5
                }
            ]
        }
    ],
    "textures" : [
        {
            "sampler" : 0,
            "source" : 0
        },
        {
            "sampler" : 0,
            "source" : 1
        },
        {
            "sampler" : 0,
            "source" : 2
        },
        {
            "sampler" : 0,
            "source" : 3
        },
        {
            "sampler" : 0,
            "source" : 4
        }
    ],
    "images" : [
        {
            "mimeType" : "image/jpeg",
            "name" : "verriere_color",
            "uri" : "texture/verriere_color.jpg"
        },
        {
            "mimeType" : "image/jpeg",
            "name" : "metal_color",
            "uri" : "texture/metal_color.jpg"
        },
        {
            "mimeType" : "image/jpeg",
            "name" : "obsrevatoire_color",
            "uri" : "texture/obsrevatoire_color.jpg"
        },
        {
            "mimeType" : "image/jpeg",
            "name" : "encadrement_color",
            "uri" : "texture/encadrement_color.jpg"
        },
        {
            "mimeType" : "image/jpeg",
            "name" : "paroies_color",
            "uri" : "texture/paroies_color.jpg"
        }
    ],
    "accessors" : [
        {
            "bufferView" : 0,
            "componentType" : 5126,
            "count" : 744,
            "max" : [
                2.196457624435425,
                1.5694446563720703,
                2.196803331375122
            ],
            "min" : [
                -2.196457624435425,
                0.5056145787239075,
                -2.196803331375122
            ],
            "type" : "VEC3"
        },
        {
            "bufferView" : 1,
            "componentType" : 5126,
            "count" : 744,
            "type" : "VEC3"
        },
        {
            "bufferView" : 2,
            "componentType" : 5126,
            "count" : 744,
            "type" : "VEC2"
        },
        {
            "bufferView" : 3,
            "componentType" : 5123,
            "count" : 744,
            "normalized" : true,
            "type" : "VEC4"
        },
        {
            "bufferView" : 4,
            "componentType" : 5123,
            "count" : 1032,
            "type" : "SCALAR"
        },
        {
            "bufferView" : 5,
            "componentType" : 5126,
            "count" : 940,
            "max" : [
                4.660433769226074,
                1.5,
                4.660433769226074
            ],
            "min" : [
                -4.660433769226074,
                -1.6478686332702637,
                -4.660433769226074
            ],
            "type" : "VEC3"
        },
        {
            "bufferView" : 6,
            "componentType" : 5126,
            "count" : 940,
            "type" : "VEC3"
        },
        {
            "bufferView" : 7,
            "componentType" : 5126,
            "count" : 940,
            "type" : "VEC2"
        },
        {
            "bufferView" : 8,
            "componentType" : 5123,
            "count" : 940,
            "normalized" : true,
            "type" : "VEC4"
        },
        {
            "bufferView" : 9,
            "componentType" : 5123,
            "count" : 1278,
            "type" : "SCALAR"
        },
        {
            "bufferView" : 10,
            "componentType" : 5126,
            "count" : 128,
            "max" : [
                4.6764678955078125,
                -0.10713335126638412,
                4.6764607429504395
            ],
            "min" : [
                -4.6764678955078125,
                -0.14999037981033325,
                -4.6764607429504395
            ],
            "type" : "VEC3"
        },
        {
            "bufferView" : 11,
            "componentType" : 5126,
            "count" : 128,
            "type" : "VEC3"
        },
        {
            "bufferView" : 12,
            "componentType" : 5126,
            "count" : 128,
            "type" : "VEC2"
        },
        {
            "bufferView" : 13,
            "componentType" : 5123,
            "count" : 128,
            "normalized" : true,
            "type" : "VEC4"
        },
        {
            "bufferView" : 14,
            "componentType" : 5123,
            "count" : 192,
            "type" : "SCALAR"
        },
        {
            "bufferView" : 15,
            "componentType" : 5126,
            "count" : 128,
            "max" : [
                4.647759914398193,
                -0.1603984832763672,
                4.64772367477417
            ],
            "min" : [
                -4.647759914398193,
                -0.5338231921195984,
                -4.64772367477417
            ],
            "type" : "VEC3"
        },
        {
            "bufferView" : 16,
            "componentType" : 5126,
            "count" : 128,
            "type" : "VEC3"
        },
        {
            "bufferView" : 17,
            "componentType" : 5126,
            "count" : 128,
            "type" : "VEC2"
        },
        {
            "bufferView" : 18,
            "componentType" : 5123,
            "count" : 128,
            "normalized" : true,
            "type" : "VEC4"
        },
        {
            "bufferView" : 19,
            "componentType" : 5123,
            "count" : 192,
            "type" : "SCALAR"
        },
        {
            "bufferView" : 20,
            "componentType" : 5126,
            "count" : 896,
            "max" : [
                4.6764678955078125,
                -0.09497174620628357,
                4.6764607429504395
            ],
            "min" : [
                -4.6764678955078125,
                -0.5984256267547607,
                -4.6764607429504395
            ],
            "type" : "VEC3"
        },
        {
            "bufferView" : 21,
            "componentType" : 5126,
            "count" : 896,
            "type" : "VEC3"
        },
        {
            "bufferView" : 22,
            "componentType" : 5126,
            "count" : 896,
            "type" : "VEC2"
        },
        {
            "bufferView" : 23,
            "componentType" : 5123,
            "count" : 896,
            "normalized" : true,
            "type" : "VEC4"
        },
        {
            "bufferView" : 24,
            "componentType" : 5123,
            "count" : 1344,
            "type" : "SCALAR"
        },
        {
            "bufferView" : 25,
            "componentType" : 5126,
            "count" : 252,
            "max" : [
                4.660433769226074,
                -0.09497174620628357,
                4.660433769226074
            ],
            "min" : [
                -4.660433769226074,
                -0.7867343425750732,
                -4.660433769226074
            ],
            "type" : "VEC3"
        },
        {
            "bufferView" : 26,
            "componentType" : 5126,
            "count" : 252,
            "type" : "VEC3"
        },
        {
            "bufferView" : 27,
            "componentType" : 5126,
            "count" : 252,
            "type" : "VEC2"
        },
        {
            "bufferView" : 28,
            "componentType" : 5123,
            "count" : 252,
            "normalized" : true,
            "type" : "VEC4"
        },
        {
            "bufferView" : 29,
            "componentType" : 5123,
            "count" : 378,
            "type" : "SCALAR"
        }
    ],
    "bufferViews" : [
        {
            "buffer" : 0,
            "byteLength" : 8928,
            "byteOffset" : 0
        },
        {
            "buffer" : 0,
            "byteLength" : 8928,
            "byteOffset" : 8928
        },
        {
            "buffer" : 0,
            "byteLength" : 5952,
            "byteOffset" : 17856
        },
        {
            "buffer" : 0,
            "byteLength" : 5952,
            "byteOffset" : 23808
        },
        {
            "buffer" : 0,
            "byteLength" : 2064,
            "byteOffset" : 29760
        },
        {
            "buffer" : 0,
            "byteLength" : 11280,
            "byteOffset" : 31824
        },
        {
            "buffer" : 0,
            "byteLength" : 11280,
            "byteOffset" : 43104
        },
        {
            "buffer" : 0,
            "byteLength" : 7520,
            "byteOffset" : 54384
        },
        {
            "buffer" : 0,
            "byteLength" : 7520,
            "byteOffset" : 61904
        },
        {
            "buffer" : 0,
            "byteLength" : 2556,
            "byteOffset" : 69424
        },
        {
            "buffer" : 0,
            "byteLength" : 1536,
            "byteOffset" : 71980
        },
        {
            "buffer" : 0,
            "byteLength" : 1536,
            "byteOffset" : 73516
        },
        {
            "buffer" : 0,
            "byteLength" : 1024,
            "byteOffset" : 75052
        },
        {
            "buffer" : 0,
            "byteLength" : 1024,
            "byteOffset" : 76076
        },
        {
            "buffer" : 0,
            "byteLength" : 384,
            "byteOffset" : 77100
        },
        {
            "buffer" : 0,
            "byteLength" : 1536,
            "byteOffset" : 77484
        },
        {
            "buffer" : 0,
            "byteLength" : 1536,
            "byteOffset" : 79020
        },
        {
            "buffer" : 0,
            "byteLength" : 1024,
            "byteOffset" : 80556
        },
        {
            "buffer" : 0,
            "byteLength" : 1024,
            "byteOffset" : 81580
        },
        {
            "buffer" : 0,
            "byteLength" : 384,
            "byteOffset" : 82604
        },
        {
            "buffer" : 0,
            "byteLength" : 10752,
            "byteOffset" : 82988
        },
        {
            "buffer" : 0,
            "byteLength" : 10752,
            "byteOffset" : 93740
        },
        {
            "buffer" : 0,
            "byteLength" : 7168,
            "byteOffset" : 104492
        },
        {
            "buffer" : 0,
            "byteLength" : 7168,
            "byteOffset" : 111660
        },
        {
            "buffer" : 0,
            "byteLength" : 2688,
            "byteOffset" : 118828
        },
        {
            "buffer" : 0,
            "byteLength" : 3024,
            "byteOffset" : 121516
        },
        {
            "buffer" : 0,
            "byteLength" : 3024,
            "byteOffset" : 124540
        },
        {
            "buffer" : 0,
            "byteLength" : 2016,
            "byteOffset" : 127564
        },
        {
            "buffer" : 0,
            "byteLength" : 2016,
            "byteOffset" : 129580
        },
        {
            "buffer" : 0,
            "byteLength" : 756,
            "byteOffset" : 131596
        }
    ],
    "samplers" : [
        {
            "magFilter" : 9729,
            "minFilter" : 9987
        }
    ],
    "buffers" : [
        {
            "byteLength" : 132352,
            "uri" : "soucoupe.bin"
        }
    ]
}
